<?xml version="1.0" standalone="no"?>
<svg xmlns:xlink="http://www.w3.org/1999/xlink" id="wave" style="transform:rotate(180deg); transition: 0.3s" viewBox="0 0 1440 100" version="1.1" xmlns="http://www.w3.org/2000/svg"><defs><linearGradient id="sw-gradient-0" x1="0" x2="0" y1="1" y2="0"><stop stop-color="rgba(255, 249, 234, 1)" offset="0%"/><stop stop-color="rgba(255, 249, 234, 1)" offset="100%"/></linearGradient></defs><path style="transform:translate(0, 0px); opacity:1" fill="url(#sw-gradient-0)" d="M0,90L40,81.7C80,73,160,57,240,51.7C320,47,400,53,480,61.7C560,70,640,80,720,70C800,60,880,30,960,23.3C1040,17,1120,33,1200,35C1280,37,1360,23,1440,30C1520,37,1600,63,1680,76.7C1760,90,1840,90,1920,80C2000,70,2080,50,2160,35C2240,20,2320,10,2400,10C2480,10,2560,20,2640,21.7C2720,23,2800,17,2880,16.7C2960,17,3040,23,3120,31.7C3200,40,3280,50,3360,56.7C3440,63,3520,67,3600,61.7C3680,57,3760,43,3840,43.3C3920,43,4000,57,4080,65C4160,73,4240,77,4320,73.3C4400,70,4480,60,4560,46.7C4640,33,4720,17,4800,11.7C4880,7,4960,13,5040,13.3C5120,13,5200,7,5280,13.3C5360,20,5440,40,5520,40C5600,40,5680,20,5720,10L5760,0L5760,100L5720,100C5680,100,5600,100,5520,100C5440,100,5360,100,5280,100C5200,100,5120,100,5040,100C4960,100,4880,100,4800,100C4720,100,4640,100,4560,100C4480,100,4400,100,4320,100C4240,100,4160,100,4080,100C4000,100,3920,100,3840,100C3760,100,3680,100,3600,100C3520,100,3440,100,3360,100C3280,100,3200,100,3120,100C3040,100,2960,100,2880,100C2800,100,2720,100,2640,100C2560,100,2480,100,2400,100C2320,100,2240,100,2160,100C2080,100,2000,100,1920,100C1840,100,1760,100,1680,100C1600,100,1520,100,1440,100C1360,100,1280,100,1200,100C1120,100,1040,100,960,100C880,100,800,100,720,100C640,100,560,100,480,100C400,100,320,100,240,100C160,100,80,100,40,100L0,100Z"/></svg>